<svg width="2453" height="2593" viewBox="0 0 2453 2593" fill="none" xmlns="http://www.w3.org/2000/svg">
<g clip-path="url(#clip0_129_263)">
<g filter="url(#filter0_if_129_263)">
<ellipse cx="1594.23" cy="411.41" rx="195.267" ry="404.473" transform="rotate(49.4228 1594.23 411.41)" fill="url(#paint0_linear_129_263)" fill-opacity="0.41"/>
</g>
<g filter="url(#filter1_f_129_263)">
<ellipse cx="494.469" cy="676.584" rx="166.305" ry="344.481" transform="rotate(-119.904 494.469 676.584)" fill="url(#paint1_linear_129_263)" fill-opacity="0.41"/>
</g>
<g opacity="0.11" clip-path="url(#clip1_129_263)">
<path d="M2146.38 234.308L2453 4V234.308H2146.38Z" stroke="#163300" stroke-opacity="0.57" stroke-width="2.9175" stroke-linejoin="round"/>
<path d="M2146.38 4V234.308L1839.75 4H2146.38Z" stroke="#163300" stroke-opacity="0.57" stroke-width="2.9175" stroke-linejoin="round"/>
<path d="M2146.38 464.615V234.307L1839.75 464.615H2146.38Z" stroke="#163300" stroke-opacity="0.57" stroke-width="2.9175" stroke-linejoin="round"/>
<path d="M2453 464.615V234.307L2146.38 464.615H2453Z" stroke="#163300" stroke-opacity="0.57" stroke-width="2.9175" stroke-linejoin="round"/>
<path d="M1839.75 4V234.308L1533.12 4H1839.75Z" stroke="#163300" stroke-opacity="0.57" stroke-width="2.9175" stroke-linejoin="round"/>
<path d="M1533.13 4V234.308L1226.5 4H1533.13Z" stroke="#163300" stroke-opacity="0.57" stroke-width="2.9175" stroke-linejoin="round"/>
<path d="M1533.13 234.307V464.615L1226.5 234.307H1533.13Z" stroke="#163300" stroke-opacity="0.57" stroke-width="2.9175" stroke-linejoin="round"/>
<path d="M1533.12 464.615V234.307L1839.75 464.615H1533.12Z" stroke="#163300" stroke-opacity="0.57" stroke-width="2.9175" stroke-linejoin="round"/>
<path d="M1533.12 464.615V694.923H1839.75L1533.12 464.615Z" stroke="#163300" stroke-opacity="0.57" stroke-width="2.9175" stroke-linejoin="round"/>
<path d="M1533.13 579.769V464.615H1379.81L1533.13 579.769Z" stroke="#163300" stroke-opacity="0.57" stroke-width="2.9175" stroke-linejoin="round"/>
<path d="M1379.81 579.769V464.615L1226.5 579.769H1379.81Z" stroke="#163300" stroke-opacity="0.57" stroke-width="2.9175" stroke-linejoin="round"/>
<path d="M1226.5 579.769V694.923H1379.81L1226.5 579.769Z" stroke="#163300" stroke-opacity="0.57" stroke-width="2.9175" stroke-linejoin="round"/>
<path d="M1379.81 579.769L1533.13 694.923V579.769H1379.81Z" stroke="#163300" stroke-opacity="0.57" stroke-width="2.9175" stroke-linejoin="round"/>
<path d="M1533.13 810.076V694.923L1379.81 810.076H1533.13Z" stroke="#163300" stroke-opacity="0.57" stroke-width="2.9175" stroke-linejoin="round"/>
<path d="M1379.81 810.076L1226.5 694.923V810.076H1379.81Z" stroke="#163300" stroke-opacity="0.57" stroke-width="2.9175" stroke-linejoin="round"/>
<path d="M1226.5 810.076V925.23L1379.81 810.076H1226.5Z" stroke="#163300" stroke-opacity="0.57" stroke-width="2.9175" stroke-linejoin="round"/>
<path d="M1533.13 810.076L1379.81 925.23V810.076H1533.13Z" stroke="#163300" stroke-opacity="0.57" stroke-width="2.9175" stroke-linejoin="round"/>
<path d="M1533.12 694.923L1839.75 925.23H1533.12V694.923Z" stroke="#163300" stroke-opacity="0.57" stroke-width="2.9175" stroke-linejoin="round"/>
<path d="M2453 694.923L2146.38 464.615H2453V694.923Z" stroke="#163300" stroke-opacity="0.57" stroke-width="2.9175" stroke-linejoin="round"/>
<path d="M2146.38 694.923L1839.75 464.615V694.923H2146.38Z" stroke="#163300" stroke-opacity="0.57" stroke-width="2.9175" stroke-linejoin="round"/>
<path d="M2146.38 694.923V925.23H1839.75L2146.38 694.923Z" stroke="#163300" stroke-opacity="0.57" stroke-width="2.9175" stroke-linejoin="round"/>
<path d="M2146.38 925.23L2453 694.923V925.23H2146.38Z" stroke="#163300" stroke-opacity="0.57" stroke-width="2.9175" stroke-linejoin="round"/>
<path d="M1226.5 4L919.875 234.308H1226.5V4Z" stroke="#163300" stroke-opacity="0.57" stroke-width="2.9175" stroke-linejoin="round"/>
<path d="M919.875 4V234.308L613.25 4H919.875Z" stroke="#163300" stroke-opacity="0.57" stroke-width="2.9175" stroke-linejoin="round"/>
<path d="M613.25 234.307L919.875 464.615V234.307H613.25Z" stroke="#163300" stroke-opacity="0.57" stroke-width="2.9175" stroke-linejoin="round"/>
<path d="M1226.5 234.307V464.615L919.875 234.307H1226.5Z" stroke="#163300" stroke-opacity="0.57" stroke-width="2.9175" stroke-linejoin="round"/>
<path d="M306.625 4L613.25 234.308V4H306.625Z" stroke="#163300" stroke-opacity="0.57" stroke-width="2.9175" stroke-linejoin="round"/>
<path d="M306.625 4L0 234.308H306.625V4Z" stroke="#163300" stroke-opacity="0.57" stroke-width="2.9175" stroke-linejoin="round"/>
<path d="M0 464.615L306.625 234.307H0V464.615Z" stroke="#163300" stroke-opacity="0.57" stroke-width="2.9175" stroke-linejoin="round"/>
<path d="M613.25 234.307V464.615L306.625 234.307H613.25Z" stroke="#163300" stroke-opacity="0.57" stroke-width="2.9175" stroke-linejoin="round"/>
<path d="M613.25 694.923L306.625 464.615H613.25V694.923Z" stroke="#163300" stroke-opacity="0.57" stroke-width="2.9175" stroke-linejoin="round"/>
<path d="M306.625 694.923H0V464.615L306.625 694.923Z" stroke="#163300" stroke-opacity="0.57" stroke-width="2.9175" stroke-linejoin="round"/>
<path d="M306.625 925.23V694.923H0L306.625 925.23Z" stroke="#163300" stroke-opacity="0.57" stroke-width="2.9175" stroke-linejoin="round"/>
<path d="M613.25 694.923V925.23L306.625 694.923H613.25Z" stroke="#163300" stroke-opacity="0.57" stroke-width="2.9175" stroke-linejoin="round"/>
<path d="M1226.5 464.615V694.923L919.875 464.615H1226.5Z" stroke="#163300" stroke-opacity="0.57" stroke-width="2.9175" stroke-linejoin="round"/>
<path d="M919.875 464.615L613.25 694.923H919.875V464.615Z" stroke="#163300" stroke-opacity="0.57" stroke-width="2.9175" stroke-linejoin="round"/>
<path d="M919.875 925.23V694.923H613.25L919.875 925.23Z" stroke="#163300" stroke-opacity="0.57" stroke-width="2.9175" stroke-linejoin="round"/>
<path d="M1226.5 810.076V694.923L1073.19 810.076H1226.5Z" stroke="#163300" stroke-opacity="0.57" stroke-width="2.9175" stroke-linejoin="round"/>
<path d="M1073.19 810.076H919.875V694.923L1073.19 810.076Z" stroke="#163300" stroke-opacity="0.57" stroke-width="2.9175" stroke-linejoin="round"/>
<path d="M1073.19 925.23L919.875 810.076H1073.19V925.23Z" stroke="#163300" stroke-opacity="0.57" stroke-width="2.9175" stroke-linejoin="round"/>
<path d="M1226.5 925.23V810.076H1073.19L1226.5 925.23Z" stroke="#163300" stroke-opacity="0.57" stroke-width="2.9175" stroke-linejoin="round"/>
<path d="M1226.5 925.23V1040.38H1073.19L1226.5 925.23Z" stroke="#163300" stroke-opacity="0.57" stroke-width="2.9175" stroke-linejoin="round"/>
<path d="M1073.19 1040.38L919.875 925.23H1073.19V1040.38Z" stroke="#163300" stroke-opacity="0.57" stroke-width="2.9175" stroke-linejoin="round"/>
<path d="M1073.19 1155.54V1040.38L919.875 1155.54H1073.19Z" stroke="#163300" stroke-opacity="0.57" stroke-width="2.9175" stroke-linejoin="round"/>
<path d="M1226.5 1040.38L1073.19 1155.54H1226.5V1040.38Z" stroke="#163300" stroke-opacity="0.57" stroke-width="2.9175" stroke-linejoin="round"/>
<path d="M919.875 1155.54V925.23H613.25L919.875 1155.54Z" stroke="#163300" stroke-opacity="0.57" stroke-width="2.9175" stroke-linejoin="round"/>
<path d="M919.875 1155.54L766.562 1270.69H919.875V1155.54Z" stroke="#163300" stroke-opacity="0.57" stroke-width="2.9175" stroke-linejoin="round"/>
<path d="M766.563 1270.69V1155.54H613.25L766.563 1270.69Z" stroke="#163300" stroke-opacity="0.57" stroke-width="2.9175" stroke-linejoin="round"/>
<path d="M613.25 1270.69V1385.85H766.563L613.25 1270.69Z" stroke="#163300" stroke-opacity="0.57" stroke-width="2.9175" stroke-linejoin="round"/>
<path d="M919.875 1385.85V1270.69H766.562L919.875 1385.85Z" stroke="#163300" stroke-opacity="0.57" stroke-width="2.9175" stroke-linejoin="round"/>
<path d="M919.875 1385.85L1226.5 1155.54H919.875V1385.85Z" stroke="#163300" stroke-opacity="0.57" stroke-width="2.9175" stroke-linejoin="round"/>
<path d="M613.25 1155.54V925.23L306.625 1155.54H613.25Z" stroke="#163300" stroke-opacity="0.57" stroke-width="2.9175" stroke-linejoin="round"/>
<path d="M306.625 1155.54H0V925.23L306.625 1155.54Z" stroke="#163300" stroke-opacity="0.57" stroke-width="2.9175" stroke-linejoin="round"/>
<path d="M306.625 1385.85L0 1155.54V1385.85H306.625Z" stroke="#163300" stroke-opacity="0.57" stroke-width="2.9175" stroke-linejoin="round"/>
<path d="M613.25 1155.54V1385.85H306.625L613.25 1155.54Z" stroke="#163300" stroke-opacity="0.57" stroke-width="2.9175" stroke-linejoin="round"/>
<path d="M613.25 1385.85V1846.46H0L613.25 1385.85Z" stroke="#163300" stroke-opacity="0.57" stroke-width="2.9175" stroke-linejoin="round"/>
<path d="M1226.5 1385.85V1616.15L919.875 1385.85H1226.5Z" stroke="#163300" stroke-opacity="0.57" stroke-width="2.9175" stroke-linejoin="round"/>
<path d="M919.875 1385.85V1616.15L613.25 1385.85H919.875Z" stroke="#163300" stroke-opacity="0.57" stroke-width="2.9175" stroke-linejoin="round"/>
<path d="M613.25 1616.15L919.875 1846.46V1616.15H613.25Z" stroke="#163300" stroke-opacity="0.57" stroke-width="2.9175" stroke-linejoin="round"/>
<path d="M1226.5 1846.46H919.875V1616.15L1226.5 1846.46Z" stroke="#163300" stroke-opacity="0.57" stroke-width="2.9175" stroke-linejoin="round"/>
<path d="M2453 925.23L2146.38 1155.54V925.23H2453Z" stroke="#163300" stroke-opacity="0.57" stroke-width="2.9175" stroke-linejoin="round"/>
<path d="M1993.06 1040.38L2146.38 925.23V1040.38H1993.06Z" stroke="#163300" stroke-opacity="0.57" stroke-width="2.9175" stroke-linejoin="round"/>
<path d="M1993.06 925.23V1040.38H1839.75L1993.06 925.23Z" stroke="#163300" stroke-opacity="0.57" stroke-width="2.9175" stroke-linejoin="round"/>
<path d="M1993.06 1040.38H1839.75L1993.06 1155.54V1040.38Z" stroke="#163300" stroke-opacity="0.57" stroke-width="2.9175" stroke-linejoin="round"/>
<path d="M2146.38 1040.38V1155.54L1993.06 1040.38H2146.38Z" stroke="#163300" stroke-opacity="0.57" stroke-width="2.9175" stroke-linejoin="round"/>
<path d="M2146.38 1385.85L1839.75 1155.54H2146.38V1385.85Z" stroke="#163300" stroke-opacity="0.57" stroke-width="2.9175" stroke-linejoin="round"/>
<path d="M2453 1155.54H2146.38L2453 1385.85V1155.54Z" stroke="#163300" stroke-opacity="0.57" stroke-width="2.9175" stroke-linejoin="round"/>
<path d="M1839.75 925.23V1155.54L1533.12 925.23H1839.75Z" stroke="#163300" stroke-opacity="0.57" stroke-width="2.9175" stroke-linejoin="round"/>
<path d="M1533.13 1040.38L1379.81 925.23V1040.38H1533.13Z" stroke="#163300" stroke-opacity="0.57" stroke-width="2.9175" stroke-linejoin="round"/>
<path d="M1379.81 925.23V1040.38H1226.5L1379.81 925.23Z" stroke="#163300" stroke-opacity="0.57" stroke-width="2.9175" stroke-linejoin="round"/>
<path d="M1379.81 1155.54L1226.5 1040.38V1155.54H1379.81Z" stroke="#163300" stroke-opacity="0.57" stroke-width="2.9175" stroke-linejoin="round"/>
<path d="M1379.81 1155.54V1040.38L1533.13 1155.54H1379.81Z" stroke="#163300" stroke-opacity="0.57" stroke-width="2.9175" stroke-linejoin="round"/>
<path d="M1226.5 1385.85V1155.54H1533.13L1226.5 1385.85Z" stroke="#163300" stroke-opacity="0.57" stroke-width="2.9175" stroke-linejoin="round"/>
<path d="M1839.75 1385.85H1533.12V1155.54L1839.75 1385.85Z" stroke="#163300" stroke-opacity="0.57" stroke-width="2.9175" stroke-linejoin="round"/>
<path d="M1839.75 1385.85V1616.15L1533.12 1385.85H1839.75Z" stroke="#163300" stroke-opacity="0.57" stroke-width="2.9175" stroke-linejoin="round"/>
<path d="M1533.13 1385.85H1226.5L1533.13 1616.15V1385.85Z" stroke="#163300" stroke-opacity="0.57" stroke-width="2.9175" stroke-linejoin="round"/>
<path d="M1533.13 1846.46H1226.5V1616.15L1533.13 1846.46Z" stroke="#163300" stroke-opacity="0.57" stroke-width="2.9175" stroke-linejoin="round"/>
<path d="M1839.75 1846.46V1616.15L1533.12 1846.46H1839.75Z" stroke="#163300" stroke-opacity="0.57" stroke-width="2.9175" stroke-linejoin="round"/>
<path d="M2453 1846.46L1839.75 1385.85H2453V1846.46Z" stroke="#163300" stroke-opacity="0.57" stroke-width="2.9175" stroke-linejoin="round"/>
</g>
</g>
<defs>
<filter id="filter0_if_129_263" x="1087.71" y="-64.66" width="1013.03" height="952.139" filterUnits="userSpaceOnUse" color-interpolation-filters="sRGB">
<feFlood flood-opacity="0" result="BackgroundImageFix"/>
<feBlend mode="normal" in="SourceGraphic" in2="BackgroundImageFix" result="shape"/>
<feColorMatrix in="SourceAlpha" type="matrix" values="0 0 0 0 0 0 0 0 0 0 0 0 0 0 0 0 0 0 127 0" result="hardAlpha"/>
<feMorphology radius="28.5663" operator="dilate" in="SourceAlpha" result="effect1_innerShadow_129_263"/>
<feOffset dx="28.5663" dy="5.19387"/>
<feGaussianBlur stdDeviation="6.49234"/>
<feComposite in2="hardAlpha" operator="arithmetic" k2="-1" k3="1"/>
<feColorMatrix type="matrix" values="0 0 0 0 1 0 0 0 0 1 0 0 0 0 1 0 0 0 1 0"/>
<feBlend mode="normal" in2="shape" result="effect1_innerShadow_129_263"/>
<feGaussianBlur stdDeviation="86.9974" result="effect2_foregroundBlur_129_263"/>
</filter>
<filter id="filter1_f_129_263" x="36.2888" y="304.162" width="916.359" height="744.844" filterUnits="userSpaceOnUse" color-interpolation-filters="sRGB">
<feFlood flood-opacity="0" result="BackgroundImageFix"/>
<feBlend mode="normal" in="SourceGraphic" in2="BackgroundImageFix" result="shape"/>
<feGaussianBlur stdDeviation="74.0939" result="effect1_foregroundBlur_129_263"/>
</filter>
<linearGradient id="paint0_linear_129_263" x1="1398.96" y1="411.41" x2="1789.49" y2="411.41" gradientUnits="userSpaceOnUse">
<stop stop-color="#9FE870"/>
<stop offset="1" stop-color="#7209B7"/>
</linearGradient>
<linearGradient id="paint1_linear_129_263" x1="328.163" y1="676.584" x2="660.774" y2="676.584" gradientUnits="userSpaceOnUse">
<stop stop-color="#9FE870"/>
<stop offset="1" stop-color="#7209B7"/>
</linearGradient>
<clipPath id="clip0_129_263">
<rect width="2453" height="2593" fill="white"/>
</clipPath>
<clipPath id="clip1_129_263">
<rect width="2453" height="2589" fill="white" transform="translate(0 4)"/>
</clipPath>
</defs>
</svg>
