<svg width="44" height="45" viewBox="0 0 44 45" fill="none" xmlns="http://www.w3.org/2000/svg">
<rect y="0.5" width="44" height="44" rx="22" fill="#2AABEE"/>
<g clip-path="url(#clip0_146_169)">
<path fill-rule="evenodd" clip-rule="evenodd" d="M29.777 14.93C30.0241 14.826 30.2946 14.7901 30.5603 14.8261C30.826 14.8621 31.0772 14.9687 31.2877 15.1347C31.4982 15.3007 31.6604 15.5201 31.7574 15.7701C31.8543 16.0201 31.8825 16.2915 31.839 16.556L29.571 30.313C29.351 31.64 27.895 32.401 26.678 31.74C25.66 31.187 24.148 30.335 22.788 29.446C22.108 29.001 20.025 27.576 20.281 26.562C20.501 25.695 24.001 22.437 26.001 20.5C26.786 19.739 26.428 19.3 25.501 20C23.199 21.738 19.503 24.381 18.281 25.125C17.203 25.781 16.641 25.893 15.969 25.781C14.743 25.577 13.606 25.261 12.678 24.876C11.424 24.356 11.485 22.632 12.677 22.13L29.777 14.93Z" fill="white"/>
</g>
<defs>
<clipPath id="clip0_146_169">
<rect width="24" height="24" fill="white" transform="translate(10 10.5)"/>
</clipPath>
</defs>
</svg>
