<svg width="24" height="25" viewBox="0 0 24 25" fill="none" xmlns="http://www.w3.org/2000/svg">
<g clip-path="url(#clip0_146_170)">
<path fill-rule="evenodd" clip-rule="evenodd" d="M19.777 4.93003C20.0241 4.82602 20.2946 4.79015 20.5603 4.82614C20.826 4.86214 21.0772 4.96869 21.2877 5.13471C21.4982 5.30073 21.6604 5.52014 21.7574 5.77011C21.8543 6.02008 21.8825 6.29147 21.839 6.55603L19.571 20.313C19.351 21.64 17.895 22.401 16.678 21.74C15.66 21.187 14.148 20.335 12.788 19.446C12.108 19.001 10.025 17.576 10.281 16.562C10.501 15.695 14.001 12.437 16.001 10.5C16.786 9.73903 16.428 9.30003 15.501 10C13.199 11.738 9.50302 14.381 8.28102 15.125C7.20302 15.781 6.64102 15.893 5.96902 15.781C4.74302 15.577 3.60602 15.261 2.67802 14.876C1.42402 14.356 1.48502 12.632 2.67702 12.13L19.777 4.93003Z" fill="white"/>
</g>
<defs>
<clipPath id="clip0_146_170">
<rect width="24" height="24" fill="white" transform="translate(0 0.5)"/>
</clipPath>
</defs>
</svg>
